<mxfile host="app.diagrams.net" modified="2023-04-09T09:52:10.540Z" agent="Mozilla/5.0 (Macintosh; Intel Mac OS X 10_15_7) AppleWebKit/537.36 (KHTML, like Gecko) Chrome/112.0.0.0 Safari/537.36 Edg/112.0.1722.34" etag="KGNcPCEJKZLgFi1p6hS5" version="21.1.5" type="github">
  <diagram name="第 1 页" id="jb5xD74uKgai-4Jla3u0">
    <mxGraphModel dx="954" dy="648" grid="1" gridSize="10" guides="1" tooltips="1" connect="1" arrows="1" fold="1" page="1" pageScale="1" pageWidth="827" pageHeight="1169" math="0" shadow="0">
      <root>
        <mxCell id="0" />
        <mxCell id="1" parent="0" />
        <mxCell id="tvfgoLdLnwqJLmt76DOU-2" value="Host" style="shape=umlLifeline;perimeter=lifelinePerimeter;whiteSpace=wrap;html=1;container=1;dropTarget=0;collapsible=0;recursiveResize=0;outlineConnect=0;portConstraint=eastwest;newEdgeStyle={&quot;edgeStyle&quot;:&quot;elbowEdgeStyle&quot;,&quot;elbow&quot;:&quot;vertical&quot;,&quot;curved&quot;:0,&quot;rounded&quot;:0};" vertex="1" parent="1">
          <mxGeometry x="70" y="100" width="100" height="700" as="geometry" />
        </mxCell>
        <mxCell id="tvfgoLdLnwqJLmt76DOU-12" value="" style="html=1;points=[];perimeter=orthogonalPerimeter;outlineConnect=0;targetShapes=umlLifeline;portConstraint=eastwest;newEdgeStyle={&quot;edgeStyle&quot;:&quot;elbowEdgeStyle&quot;,&quot;elbow&quot;:&quot;vertical&quot;,&quot;curved&quot;:0,&quot;rounded&quot;:0};" vertex="1" parent="tvfgoLdLnwqJLmt76DOU-2">
          <mxGeometry x="45" y="102" width="10" height="40" as="geometry" />
        </mxCell>
        <mxCell id="tvfgoLdLnwqJLmt76DOU-13" value="Show device code to user" style="html=1;align=center;spacingLeft=20;endArrow=block;rounded=0;edgeStyle=orthogonalEdgeStyle;curved=0;rounded=0;verticalAlign=middle;labelPosition=center;verticalLabelPosition=middle;spacingBottom=50;" edge="1" target="tvfgoLdLnwqJLmt76DOU-12" parent="tvfgoLdLnwqJLmt76DOU-2">
          <mxGeometry x="0.0069" relative="1" as="geometry">
            <mxPoint x="50" y="82" as="sourcePoint" />
            <Array as="points">
              <mxPoint x="110" y="82" />
              <mxPoint x="110" y="112" />
            </Array>
            <mxPoint as="offset" />
          </mxGeometry>
        </mxCell>
        <mxCell id="tvfgoLdLnwqJLmt76DOU-35" value="" style="html=1;points=[];perimeter=orthogonalPerimeter;outlineConnect=0;targetShapes=umlLifeline;portConstraint=eastwest;newEdgeStyle={&quot;edgeStyle&quot;:&quot;elbowEdgeStyle&quot;,&quot;elbow&quot;:&quot;vertical&quot;,&quot;curved&quot;:0,&quot;rounded&quot;:0};" vertex="1" parent="tvfgoLdLnwqJLmt76DOU-2">
          <mxGeometry x="45" y="160" width="10" height="540" as="geometry" />
        </mxCell>
        <mxCell id="tvfgoLdLnwqJLmt76DOU-42" value="" style="html=1;points=[];perimeter=orthogonalPerimeter;outlineConnect=0;targetShapes=umlLifeline;portConstraint=eastwest;newEdgeStyle={&quot;edgeStyle&quot;:&quot;elbowEdgeStyle&quot;,&quot;elbow&quot;:&quot;vertical&quot;,&quot;curved&quot;:0,&quot;rounded&quot;:0};" vertex="1" parent="tvfgoLdLnwqJLmt76DOU-2">
          <mxGeometry x="55" y="505" width="10" height="40" as="geometry" />
        </mxCell>
        <mxCell id="tvfgoLdLnwqJLmt76DOU-43" value="Save Slave&#39;s public key and device info" style="html=1;align=center;spacingLeft=20;endArrow=block;rounded=0;edgeStyle=orthogonalEdgeStyle;curved=0;rounded=0;verticalAlign=middle;labelPosition=center;verticalLabelPosition=middle;spacingBottom=50;" edge="1" parent="tvfgoLdLnwqJLmt76DOU-2" target="tvfgoLdLnwqJLmt76DOU-42" source="tvfgoLdLnwqJLmt76DOU-35">
          <mxGeometry x="0.0069" relative="1" as="geometry">
            <mxPoint x="60" y="485" as="sourcePoint" />
            <Array as="points">
              <mxPoint x="120" y="485" />
              <mxPoint x="120" y="515" />
            </Array>
            <mxPoint as="offset" />
          </mxGeometry>
        </mxCell>
        <mxCell id="tvfgoLdLnwqJLmt76DOU-3" value="Slave" style="shape=umlLifeline;perimeter=lifelinePerimeter;whiteSpace=wrap;html=1;container=1;dropTarget=0;collapsible=0;recursiveResize=0;outlineConnect=0;portConstraint=eastwest;newEdgeStyle={&quot;edgeStyle&quot;:&quot;elbowEdgeStyle&quot;,&quot;elbow&quot;:&quot;vertical&quot;,&quot;curved&quot;:0,&quot;rounded&quot;:0};" vertex="1" parent="1">
          <mxGeometry x="320" y="100" width="100" height="700" as="geometry" />
        </mxCell>
        <mxCell id="tvfgoLdLnwqJLmt76DOU-18" value="" style="html=1;points=[];perimeter=orthogonalPerimeter;outlineConnect=0;targetShapes=umlLifeline;portConstraint=eastwest;newEdgeStyle={&quot;edgeStyle&quot;:&quot;elbowEdgeStyle&quot;,&quot;elbow&quot;:&quot;vertical&quot;,&quot;curved&quot;:0,&quot;rounded&quot;:0};" vertex="1" parent="tvfgoLdLnwqJLmt76DOU-3">
          <mxGeometry x="45" y="170" width="10" height="200" as="geometry" />
        </mxCell>
        <mxCell id="tvfgoLdLnwqJLmt76DOU-32" value="" style="html=1;points=[];perimeter=orthogonalPerimeter;outlineConnect=0;targetShapes=umlLifeline;portConstraint=eastwest;newEdgeStyle={&quot;edgeStyle&quot;:&quot;elbowEdgeStyle&quot;,&quot;elbow&quot;:&quot;vertical&quot;,&quot;curved&quot;:0,&quot;rounded&quot;:0};" vertex="1" parent="tvfgoLdLnwqJLmt76DOU-3">
          <mxGeometry x="55" y="308" width="10" height="40" as="geometry" />
        </mxCell>
        <mxCell id="tvfgoLdLnwqJLmt76DOU-33" value="Save Host&#39;s public key and show &lt;br&gt;Slave&#39;s device code to user" style="html=1;align=center;spacingLeft=50;endArrow=block;rounded=0;edgeStyle=orthogonalEdgeStyle;curved=0;rounded=0;verticalAlign=middle;labelPosition=center;verticalLabelPosition=middle;spacingBottom=60;" edge="1" parent="tvfgoLdLnwqJLmt76DOU-3" target="tvfgoLdLnwqJLmt76DOU-32">
          <mxGeometry x="0.0133" relative="1" as="geometry">
            <mxPoint x="55" y="288" as="sourcePoint" />
            <Array as="points">
              <mxPoint x="120" y="288" />
              <mxPoint x="120" y="318" />
            </Array>
            <mxPoint as="offset" />
          </mxGeometry>
        </mxCell>
        <mxCell id="tvfgoLdLnwqJLmt76DOU-45" value="" style="html=1;points=[];perimeter=orthogonalPerimeter;outlineConnect=0;targetShapes=umlLifeline;portConstraint=eastwest;newEdgeStyle={&quot;edgeStyle&quot;:&quot;elbowEdgeStyle&quot;,&quot;elbow&quot;:&quot;vertical&quot;,&quot;curved&quot;:0,&quot;rounded&quot;:0};" vertex="1" parent="tvfgoLdLnwqJLmt76DOU-3">
          <mxGeometry x="44.5" y="589" width="10" height="81" as="geometry" />
        </mxCell>
        <mxCell id="tvfgoLdLnwqJLmt76DOU-46" value="" style="html=1;points=[];perimeter=orthogonalPerimeter;outlineConnect=0;targetShapes=umlLifeline;portConstraint=eastwest;newEdgeStyle={&quot;edgeStyle&quot;:&quot;elbowEdgeStyle&quot;,&quot;elbow&quot;:&quot;vertical&quot;,&quot;curved&quot;:0,&quot;rounded&quot;:0};" vertex="1" parent="tvfgoLdLnwqJLmt76DOU-3">
          <mxGeometry x="55" y="619.5" width="10" height="40" as="geometry" />
        </mxCell>
        <mxCell id="tvfgoLdLnwqJLmt76DOU-47" value="Decrypt and save" style="html=1;align=center;spacingLeft=-20;endArrow=block;rounded=0;edgeStyle=orthogonalEdgeStyle;curved=0;rounded=0;spacingBottom=50;labelPosition=center;verticalLabelPosition=middle;verticalAlign=middle;" edge="1" target="tvfgoLdLnwqJLmt76DOU-46" parent="tvfgoLdLnwqJLmt76DOU-3" source="tvfgoLdLnwqJLmt76DOU-45">
          <mxGeometry relative="1" as="geometry">
            <mxPoint x="60" y="599.5" as="sourcePoint" />
            <Array as="points">
              <mxPoint x="120" y="600" />
              <mxPoint x="120" y="640" />
            </Array>
          </mxGeometry>
        </mxCell>
        <mxCell id="tvfgoLdLnwqJLmt76DOU-15" value="Send plain text public key to Slave" style="html=1;verticalAlign=bottom;endArrow=block;edgeStyle=elbowEdgeStyle;elbow=vertical;curved=0;rounded=0;" edge="1" parent="1" target="tvfgoLdLnwqJLmt76DOU-18">
          <mxGeometry width="80" relative="1" as="geometry">
            <mxPoint x="125" y="270" as="sourcePoint" />
            <mxPoint x="369.5" y="270" as="targetPoint" />
          </mxGeometry>
        </mxCell>
        <mxCell id="tvfgoLdLnwqJLmt76DOU-17" value="User" style="shape=umlLifeline;perimeter=lifelinePerimeter;whiteSpace=wrap;html=1;container=1;dropTarget=0;collapsible=0;recursiveResize=0;outlineConnect=0;portConstraint=eastwest;newEdgeStyle={&quot;edgeStyle&quot;:&quot;elbowEdgeStyle&quot;,&quot;elbow&quot;:&quot;vertical&quot;,&quot;curved&quot;:0,&quot;rounded&quot;:0};" vertex="1" parent="1">
          <mxGeometry x="520" y="100" width="100" height="700" as="geometry" />
        </mxCell>
        <mxCell id="tvfgoLdLnwqJLmt76DOU-28" value="" style="html=1;points=[];perimeter=orthogonalPerimeter;outlineConnect=0;targetShapes=umlLifeline;portConstraint=eastwest;newEdgeStyle={&quot;edgeStyle&quot;:&quot;elbowEdgeStyle&quot;,&quot;elbow&quot;:&quot;vertical&quot;,&quot;curved&quot;:0,&quot;rounded&quot;:0};" vertex="1" parent="tvfgoLdLnwqJLmt76DOU-17">
          <mxGeometry x="45" y="190" width="10" height="40" as="geometry" />
        </mxCell>
        <mxCell id="tvfgoLdLnwqJLmt76DOU-36" value="" style="html=1;points=[];perimeter=orthogonalPerimeter;outlineConnect=0;targetShapes=umlLifeline;portConstraint=eastwest;newEdgeStyle={&quot;edgeStyle&quot;:&quot;elbowEdgeStyle&quot;,&quot;elbow&quot;:&quot;vertical&quot;,&quot;curved&quot;:0,&quot;rounded&quot;:0};" vertex="1" parent="tvfgoLdLnwqJLmt76DOU-17">
          <mxGeometry x="45" y="407" width="10" height="43" as="geometry" />
        </mxCell>
        <mxCell id="tvfgoLdLnwqJLmt76DOU-20" style="edgeStyle=elbowEdgeStyle;rounded=0;orthogonalLoop=1;jettySize=auto;html=1;elbow=horizontal;curved=0;" edge="1" parent="1" target="tvfgoLdLnwqJLmt76DOU-28">
          <mxGeometry relative="1" as="geometry">
            <mxPoint x="375" y="291" as="sourcePoint" />
            <mxPoint x="569.5" y="291" as="targetPoint" />
            <Array as="points">
              <mxPoint x="560" y="291" />
            </Array>
          </mxGeometry>
        </mxCell>
        <mxCell id="tvfgoLdLnwqJLmt76DOU-21" value="Show Host&#39;s device code and &lt;br&gt;ask user to check out" style="text;html=1;align=center;verticalAlign=middle;resizable=0;points=[];autosize=1;strokeColor=none;fillColor=none;" vertex="1" parent="1">
          <mxGeometry x="375" y="255" width="180" height="40" as="geometry" />
        </mxCell>
        <mxCell id="tvfgoLdLnwqJLmt76DOU-29" value="Check OK" style="html=1;verticalAlign=bottom;endArrow=open;dashed=1;endSize=8;edgeStyle=elbowEdgeStyle;elbow=vertical;curved=0;rounded=0;" edge="1" parent="1" target="tvfgoLdLnwqJLmt76DOU-18">
          <mxGeometry x="0.0053" relative="1" as="geometry">
            <mxPoint x="564" y="330" as="sourcePoint" />
            <mxPoint x="380" y="330" as="targetPoint" />
            <mxPoint as="offset" />
          </mxGeometry>
        </mxCell>
        <mxCell id="tvfgoLdLnwqJLmt76DOU-34" value="Send Slave&#39;s public key and device info &lt;br&gt;encrypted by Host&#39;s public key to Host" style="html=1;verticalAlign=bottom;endArrow=open;edgeStyle=elbowEdgeStyle;elbow=vertical;curved=0;rounded=0;dashed=1;endFill=0;" edge="1" parent="1" target="tvfgoLdLnwqJLmt76DOU-35">
          <mxGeometry x="0.0102" width="80" relative="1" as="geometry">
            <mxPoint x="365" y="470" as="sourcePoint" />
            <mxPoint x="150" y="470" as="targetPoint" />
            <mxPoint as="offset" />
          </mxGeometry>
        </mxCell>
        <mxCell id="tvfgoLdLnwqJLmt76DOU-37" value="Decrypte and show Slave&#39;s device code and ask user to check out" style="html=1;verticalAlign=bottom;endArrow=block;edgeStyle=elbowEdgeStyle;elbow=vertical;curved=0;rounded=0;" edge="1" parent="1">
          <mxGeometry relative="1" as="geometry">
            <mxPoint x="125" y="508" as="sourcePoint" />
            <mxPoint x="565" y="508" as="targetPoint" />
          </mxGeometry>
        </mxCell>
        <mxCell id="tvfgoLdLnwqJLmt76DOU-38" value="Check OK" style="html=1;verticalAlign=bottom;endArrow=open;dashed=1;endSize=8;edgeStyle=elbowEdgeStyle;elbow=vertical;curved=0;rounded=0;" edge="1" parent="1">
          <mxGeometry relative="1" as="geometry">
            <mxPoint x="125" y="550" as="targetPoint" />
            <mxPoint x="565" y="550" as="sourcePoint" />
          </mxGeometry>
        </mxCell>
        <mxCell id="tvfgoLdLnwqJLmt76DOU-44" value="Send device info&lt;br style=&quot;border-color: var(--border-color);&quot;&gt;encrypted by Slave&#39;s public key to Slave" style="html=1;verticalAlign=bottom;endArrow=block;edgeStyle=elbowEdgeStyle;elbow=vertical;curved=0;rounded=0;" edge="1" parent="1" target="tvfgoLdLnwqJLmt76DOU-45">
          <mxGeometry width="80" relative="1" as="geometry">
            <mxPoint x="125" y="690" as="sourcePoint" />
            <mxPoint x="369.5" y="690" as="targetPoint" />
          </mxGeometry>
        </mxCell>
        <mxCell id="tvfgoLdLnwqJLmt76DOU-48" value="ACK" style="html=1;verticalAlign=bottom;endArrow=open;dashed=1;endSize=8;edgeStyle=elbowEdgeStyle;elbow=vertical;curved=0;rounded=0;" edge="1" parent="1">
          <mxGeometry relative="1" as="geometry">
            <mxPoint x="364.5" y="769" as="sourcePoint" />
            <mxPoint x="125" y="769" as="targetPoint" />
          </mxGeometry>
        </mxCell>
      </root>
    </mxGraphModel>
  </diagram>
</mxfile>
